<!--?xml version="1.0" standalone="no"?-->
              <svg id="sw-js-blob-svg" viewBox="0 0 100 100" xmlns="http://www.w3.org/2000/svg" version="1.1">
                    <defs> 
                        <linearGradient id="sw-gradient" x1="0" x2="1" y1="1" y2="0">
                            <stop id="stop1" stop-color="rgba(255, 75, 43, 1)" offset="0%"></stop>
                            <stop id="stop2" stop-color="rgba(255, 65, 108, 1)" offset="100%"></stop>
                        </linearGradient>
                    </defs>
                <path fill="url(#sw-gradient)" d="M20.3,-36.4C25.1,-32.4,26.8,-24.4,29.6,-17.7C32.3,-11,36.1,-5.5,36,-0.1C35.9,5.4,31.8,10.7,28.2,15.9C24.6,21.1,21.3,26.2,16.7,30.1C12,34,6,36.8,-0.4,37.4C-6.8,38.1,-13.5,36.6,-17.7,32.4C-22,28.3,-23.7,21.5,-27.9,15.7C-32.2,9.8,-38.9,4.9,-40.2,-0.8C-41.5,-6.5,-37.5,-12.9,-33.4,-18.9C-29.2,-24.8,-25,-30.3,-19.4,-33.9C-13.8,-37.4,-6.9,-38.9,0.4,-39.7C7.8,-40.4,15.5,-40.4,20.3,-36.4Z" width="100%" height="100%" transform="translate(50 50)" stroke-width="0" style="transition: all 0.3s ease 0s;" stroke="url(#sw-gradient)"></path>
              </svg>