<?xml version="1.0" standalone="no"?>
<svg xmlns:xlink="http://www.w3.org/1999/xlink" id="wave" style="transform:rotate(0deg); transition: 0.3s" viewBox="0 0 1440 490" version="1.1" xmlns="http://www.w3.org/2000/svg"><defs><linearGradient id="sw-gradient-0" x1="0" x2="0" y1="1" y2="0"><stop stop-color="rgba(255, 65, 108, 1)" offset="0%"/><stop stop-color="rgba(255, 75, 43, 1)" offset="100%"/></linearGradient></defs><path style="transform:translate(0, 0px); opacity:1" fill="url(#sw-gradient-0)" d="M0,49L48,73.5C96,98,192,147,288,163.3C384,180,480,163,576,147C672,131,768,114,864,122.5C960,131,1056,163,1152,163.3C1248,163,1344,131,1440,130.7C1536,131,1632,163,1728,220.5C1824,278,1920,359,2016,326.7C2112,294,2208,147,2304,98C2400,49,2496,98,2592,130.7C2688,163,2784,180,2880,155.2C2976,131,3072,65,3168,106.2C3264,147,3360,294,3456,326.7C3552,359,3648,278,3744,269.5C3840,261,3936,327,4032,302.2C4128,278,4224,163,4320,114.3C4416,65,4512,82,4608,130.7C4704,180,4800,261,4896,277.7C4992,294,5088,245,5184,245C5280,245,5376,294,5472,302.2C5568,310,5664,278,5760,294C5856,310,5952,376,6048,334.8C6144,294,6240,147,6336,122.5C6432,98,6528,196,6624,261.3C6720,327,6816,359,6864,375.7L6912,392L6912,490L6864,490C6816,490,6720,490,6624,490C6528,490,6432,490,6336,490C6240,490,6144,490,6048,490C5952,490,5856,490,5760,490C5664,490,5568,490,5472,490C5376,490,5280,490,5184,490C5088,490,4992,490,4896,490C4800,490,4704,490,4608,490C4512,490,4416,490,4320,490C4224,490,4128,490,4032,490C3936,490,3840,490,3744,490C3648,490,3552,490,3456,490C3360,490,3264,490,3168,490C3072,490,2976,490,2880,490C2784,490,2688,490,2592,490C2496,490,2400,490,2304,490C2208,490,2112,490,2016,490C1920,490,1824,490,1728,490C1632,490,1536,490,1440,490C1344,490,1248,490,1152,490C1056,490,960,490,864,490C768,490,672,490,576,490C480,490,384,490,288,490C192,490,96,490,48,490L0,490Z"/></svg>